<svg width="40" height="40" viewBox="0 0 40 40" fill="none" xmlns="http://www.w3.org/2000/svg">
<path d="M36.6667 5V8.33333H6.66669V5H36.6667ZM6.66669 25H21.6667V21.6667H6.66669V25ZM6.66669 16.6667H36.6667V13.3333H6.66669V16.6667ZM31.6667 20C33.5167 20 35 21.5 35 23.3333C35 25.1667 33.5167 26.6667 31.6667 26.6667C29.8167 26.6667 28.3334 25.1833 28.3334 23.3333C28.3334 21.4833 29.8334 20 31.6667 20ZM25 33.3333V31.6667C25 29.8333 27.9834 28.3333 31.6667 28.3333C35.35 28.3333 38.3334 29.8333 38.3334 31.6667V33.3333H25Z" fill="white"/>
</svg>
